<svg fill="none" xmlns="http://www.w3.org/2000/svg" viewBox="0 0 140 26">
  <path d="M60.206 2.515c.371 0 .672.301.672.673l-.005 9.534c0 .178-.071.35-.197.475l-10.27 10.27a.004.004 0 0 1-.006 0 .004.004 0 0 0-.007.004v.008a.01.01 0 0 1-.008.008H36.762l-.001-.001H26.319a.673.673 0 0 1-.673-.673V3.187c0-.372.301-.673.673-.673h13.545c.371 0 .672.301.672.673v5.996c0 .371.301.672.673.672h1.566c.178 0 .35-.07.475-.197l6.946-6.946a.67.67 0 0 1 .475-.197z" fill="#ffffff" />
  <path d="M99.755 2.515c.371 0 .672.3.672.672v9.535c0 .178-.071.35-.197.476L90.148 23.274a.67.67 0 0 1-.475.197l-10.218.015a.63.63 0 0 1-.629-.63v-4.253c0-.599-.724-.899-1.148-.475l-5.146 5.146a.67.67 0 0 1-.475.197l-9.543.015a.673.673 0 0 1-.674-.674l.013-9.546c0-.178.07-.348.197-.474l10.078-10.08a.67.67 0 0 1 .476-.197h6.222v-.001h4.78c.372 0 .673.301.673.673v3.368c0 .599.724.9 1.148.475l4.32-4.32a.67.67 0 0 1 .476-.197z" fill="#ffffff" />
  <path d="M121.905 2.515c.179 0 .35.07.476.197l10.093 10.092a.67.67 0 0 1 .197.475v9.534a.673.673 0 0 1-.674.673l-9.544-.015a.67.67 0 0 1-.474-.197l-4.561-4.56a.67.67 0 0 0-.951 0l-4.561 4.56a.67.67 0 0 1-.475.197l-9.544.015a.67.67 0 0 1-.673-.673v-9.534c0-.178.07-.35.197-.475l10.091-10.092a.67.67 0 0 1 .476-.197z" fill="#ffffff" />
  <path d="M23.235 2.514c.371 0 .672.301.672.673v9.534c0 .179-.07.35-.197.476L13.628 23.274a.67.67 0 0 1-.473.197l-4.346.015H.673A.673.673 0 0 1 0 22.813V10.527c0-.371.301-.673.673-.673h5.13c.18 0 .35-.07.476-.197l6.946-6.946a.67.67 0 0 1 .475-.197z" fill="#ffffff" />
</svg>
